<svg width="318" height="25" viewBox="0 0 318 25" fill="none" xmlns="http://www.w3.org/2000/svg">
<path d="M0.992432 24.0001H3.93643L5.88843 16.9281H14.5924L16.5764 24.0001H19.6484L12.9284 1.0241H7.80843L0.992432 24.0001ZM6.62443 14.3681L9.60043 3.5841H10.8804L13.8884 14.3681H6.62443Z" fill="#191D28"/>
<path d="M24.8352 24.0001H37.2832V21.3761H27.7152V1.0241H24.8352V24.0001Z" fill="#191D28"/>
<path d="M42.1464 24.0001H55.2984V21.4401H45.0264V13.4081H54.1144V10.8481H45.0264V3.5841H55.0744V1.0241H42.1464V24.0001Z" fill="#191D28"/>
<path d="M59.4254 24.0001H62.5934L67.4574 13.7281H68.9934L73.7934 24.0001H77.0254L71.2974 12.3521L77.0254 1.0241H73.8574L69.0254 11.1681H67.4254L62.6574 1.0241H59.4254L65.1854 12.5441L59.4254 24.0001Z" fill="#191D28"/>
<path d="M80.8312 24.0001H83.7752L85.7272 16.9281H94.4312L96.4152 24.0001H99.4872L92.7672 1.0241H87.6472L80.8312 24.0001ZM86.4632 14.3681L89.4392 3.5841H90.7192L93.7272 14.3681H86.4632Z" fill="#191D28"/>
<path d="M104.674 24.0001H107.298V3.5841H108.738L116.354 24.0001H121.922V1.0241H119.266V21.4401H118.114L110.498 1.0241H104.674V24.0001Z" fill="#191D28"/>
<path d="M128.454 24.0001H135.622C141.158 24.0001 145.478 18.9441 145.478 12.5121C145.478 6.0801 141.158 1.0241 135.622 1.0241H128.454V24.0001ZM131.334 21.4401V3.5841H135.59C139.622 3.5841 142.214 6.3361 142.214 10.6241V14.4321C142.214 18.6881 139.622 21.4401 135.59 21.4401H131.334Z" fill="#191D28"/>
<path d="M150.828 24.0001H153.708V14.9761H158.188V16.6401L163.148 24.0001H166.7L161.068 16.0641V14.1441C163.66 12.9921 165.388 10.6881 165.388 8.0001C165.388 4.0961 162.028 1.0241 157.74 1.0241H150.828V24.0001ZM153.708 12.4161V3.5841H157.836C160.748 3.5841 162.252 4.7681 162.252 7.0721V8.9281C162.252 11.2321 160.748 12.4161 157.836 12.4161H153.708Z" fill="#191D28"/>
<path d="M171.483 24.0001H174.363V1.0241H171.483V24.0001Z" fill="#191D28"/>
<path d="M179.544 24.0001H182.488L184.44 16.9281H193.144L195.128 24.0001H198.2L191.48 1.0241H186.36L179.544 24.0001ZM185.176 14.3681L188.152 3.5841H189.432L192.44 14.3681H185.176Z" fill="#191D28"/>
<path d="M212.291 24.0001H215.171V13.4081H217.091L224.707 24.0001H228.355L219.331 11.9361L228.131 1.0241H224.835L217.091 10.8481H215.171V1.0241H212.291V24.0001Z" fill="#191D28"/>
<path d="M232.853 24.0001H235.733V14.9761H240.213V16.6401L245.173 24.0001H248.725L243.093 16.0641V14.1441C245.685 12.9921 247.413 10.6881 247.413 8.0001C247.413 4.0961 244.053 1.0241 239.765 1.0241H232.853V24.0001ZM235.733 12.4161V3.5841H239.861C242.773 3.5841 244.277 4.7681 244.277 7.0721V8.9281C244.277 11.2321 242.773 12.4161 239.861 12.4161H235.733Z" fill="#191D28"/>
<path d="M262.155 24.3201C267.819 24.3201 272.299 19.1041 272.299 12.5121C272.299 5.9201 267.819 0.704102 262.155 0.704102C256.491 0.704102 252.011 5.9201 252.011 12.5121C252.011 19.1041 256.491 24.3201 262.155 24.3201ZM262.155 21.7281C257.995 21.7281 255.275 18.8481 255.275 14.4321V10.6241C255.275 6.1441 257.963 3.2961 262.155 3.2961C266.347 3.2961 269.035 6.1441 269.035 10.6241V14.4321C269.035 18.8481 266.315 21.7281 262.155 21.7281Z" fill="#191D28"/>
<path d="M277.631 24.0001H280.511V13.4081H291.007V24.0001H293.887V1.0241H291.007V10.8481H280.511V1.0241H277.631V24.0001Z" fill="#191D28"/>
<path d="M300.411 24.0001H303.035V3.5841H304.475L312.091 24.0001H317.659V1.0241H315.003V21.4401H313.851L306.235 1.0241H300.411V24.0001Z" fill="#191D28"/>
</svg>
